<svg xmlns="http://www.w3.org/2000/svg" width="205.919" height="206.41" viewBox="0 0 205.919 206.41"><g transform="translate(-2176.992 -475.699)"><path d="M2277.593,682.109c-44.648-7.7-85.267-33.343-93.673-46.6-6.457-10.151-7.941-22.371-6.327-35.266,2.365-18.941,32.114-108.965,90.456-122.628,21.085-4.938,48.952-1.789,79.576,27.111,19.413,18.2,26.337,43.845,27.043,70.322.954,34.192-10.355,84.947-29.979,98.545" fill="#ed9f4a" opacity="0.2"/><g transform="translate(2186.106 587.983)"><path d="M2229.41,883.83q-2.633-1.517-5.25-3.125h0v0c-6.535-37.752-19.313-63.158-19.49-63.5-.406-.791-.33-2.565,2.255-2.79,2.26-.2,3.661.293,4.067,1.087.045.088,2.894,6.133,6.738,17.033q.52,1.471,1.06,3.061,1.179,3.462,2.443,7.471c.31,1,.629,2.023.944,3.075.057.183.113.369.169.555C2225.228,856.272,2227.747,869.072,2229.41,883.83Z" transform="translate(-2204.483 -814.364)" fill="#ee9849"/></g><path d="M2388.532,905.147q-.342-4.49-.828-8.827c-3.324-29.813-12.463-60.617-21.717-79.123-.406-.791-.33-2.565,2.255-2.79,2.26-.2,3.66.293,4.067,1.087.017.034.485,1.023,1.285,2.9,11.427,26.719,16.078,49.351,18.213,76.854q.406,5.326.66,10.9" transform="translate(-126.211 -226.381)" fill="#ee9849"/><g transform="translate(2193.68 603.8)"><path d="M2229.1,868.132a1.734,1.734,0,0,1-1.752-1.312,1.607,1.607,0,0,1,1.454-1.82c1.541-.233,37.916-5.664,54.2-1.133a1.551,1.551,0,0,1,1.165,1.977,1.83,1.83,0,0,1-2.231,1.032c-15.464-4.3-52.164,1.177-52.533,1.233A2.03,2.03,0,0,1,2229.1,868.132Z" transform="translate(-2227.327 -862.069)" fill="#ee9849"/></g><g transform="translate(2197.838 614.245)"><path d="M2241.644,899.636a1.733,1.733,0,0,1-1.752-1.312,1.607,1.607,0,0,1,1.454-1.82c1.541-.233,37.916-5.665,54.2-1.133a1.551,1.551,0,0,1,1.165,1.977,1.83,1.83,0,0,1-2.231,1.032c-15.471-4.305-52.164,1.177-52.532,1.233A1.99,1.99,0,0,1,2241.644,899.636Z" transform="translate(-2239.866 -893.572)" fill="#ee9849"/></g><path d="M2609.191,994.767c1.251-2.668,2.431-5.5,3.536-8.452h-60.358a2.118,2.118,0,0,0-2.114,2.114v4.225a2.12,2.12,0,0,0,2.114,2.114Z" transform="translate(-249.508 -341.321)" fill="#2b478b"/><path d="M2308.035,635.078c-.186-.714-2.463-8.35-14.372-6.136,0,0,5.965-.6,7.536,1.737,0,0-4.657-2.28-7.655-.55s-3.639,7.8-3.246,9.657,3.51,7.452,5.668,7.507a6.4,6.4,0,0,0,2.478-.546,28.452,28.452,0,0,0-.959,3.186c-2.571,10.727,4.391,19.11,8.152,17.18,2.412-1.238,4.866,3.768,4.866,3.768l19.652-26.451S2316.827,627.547,2308.035,635.078Z" transform="translate(-75.67 -102.167)" fill="#2c3a64"/><path d="M2366.5,1052.386q-1.365-.524-2.73-1.071l5.1-2.705,7.474-3.96s2.725.042,7.237.152c.662.014,1.364.031,2.1.054,1.359.033,2.835.073,4.416.118,5.459.157,12.135.38,19.271.687,24.2,1.045,53.649,3.069,58.615,6.812" transform="translate(-124.849 -380.315)" fill="#365da4"/><path d="M2366.5,1060.369q-1.365-.524-2.73-1.071l5.1-2.705,11.887,5.042" transform="translate(-124.849 -388.299)" fill="#2d427c"/><path d="M2465.764,856.048a6.793,6.793,0,0,0-5.815-4.818,24.007,24.007,0,0,0-7.047.566c-2.95.866-7.856-.846-7.856-.846s-17.985-6.253-22.19-8.87c-9.022-5.615-25.335-42.01-30.89-37.573,0,0-7.178,6.774-3.237,18.425s19.524,27.687,28.981,30.277c6.987,1.913,25.244,2.932,27.667,3.061,3.015.389,7.106,2.132,8.2,2.218,1.21.094,3.908-1.7,5.776-1.437C2466.161,858.011,2465.764,856.048,2465.764,856.048Z" transform="translate(-140.745 -219.542)" fill="#ea8e50"/><path d="M2364.672,768.779a163.327,163.327,0,0,1-22.772-1.6c1.3-2.176,2.852-8.443,3.292-17.095v-.031l2.625.141,12.424.663s-.013.182-.038.5c-.117,1.674-.487,7.159-.426,10.248a13.213,13.213,0,0,0,.831,3.874C2361.964,766.64,2363.327,767.722,2364.672,768.779Z" transform="translate(-110.233 -183.39)" fill="#ffb07b"/><path d="M2366.243,761.365c-7.53-.893-12.338-7.506-14.586-11.518l-.082-.145,2.708.254,12.387,1.16C2366.552,752.792,2366.181,758.276,2366.243,761.365Z" transform="translate(-116.699 -183.158)" fill="#ea8e50"/><path d="M2364.05,707.172s-17.619-.164-17.348-11.135-1.821-18.381,9.441-18.74,13.343,3.881,14.142,7.565S2368.641,706.932,2364.05,707.172Z" transform="translate(-113.441 -134.744)" fill="#ffb07b"/><path d="M2358.345,674.162c-2.637-3.371-4.713-2.7-5.892-1.737a12.315,12.315,0,0,0-15.895,2.124,20.968,20.968,0,0,1-7.174,12.2s3.159,2.066,10.608.353a12.58,12.58,0,0,0,6.1-3.982,41.108,41.108,0,0,1-7.294,8.455c8.945-3.858,12.813-16.061,13.2-17.352,1.05.993,3.115,3.145,3.708,5.218.806,2.816,1.053,8.578,2.734,8.425C2358.442,687.871,2362.3,679.216,2358.345,674.162Z" transform="translate(-101.867 -130.157)" fill="#2c3a64"/><path d="M2443.3,867.883s11.326,14.639,13.9,14.868,1.373,9.973,0,12.48-10.188,7.875-15.82,2.1S2443.3,867.883,2443.3,867.883Z" transform="translate(-175.338 -262.156)" fill="#a53934"/><path d="M2328.554,875.933q-1.366-.524-2.731-1.071-1.629-.647-3.256-1.336c-.2-.082-.4-.164-.605-.254q-1.044-.44-2.089-.9c.209-7.415,3-24.062,1.02-27.37-1.477-2.468-5.921-14.034-9.257-23.393-.384-1.071-.753-2.114-1.1-3.111-.327-.944-.637-1.846-.924-2.692-.64-1.886-1.158-3.5-1.508-4.678a16.759,16.759,0,0,1-.446-1.747c-.059-.369-.138-.84-.217-1.392-.687-4.67-1.6-15.091,6.158-18.394,0,0,4.205-1.807,4.548-3.292a8.093,8.093,0,0,0,.1-1.516v-.006c.017-2.006-.036-4.754,1.919-3.971.158.065.319.133.476.209,2.421,1.124,5.056,3.322,9.154,3.109a45.351,45.351,0,0,0,6.733-1.215c1.045-.194,1.758-.192,1.981.3.569,1.24-.975,2.894-.036,3.732l.006,0a.243.243,0,0,0,.031.029.161.161,0,0,0,.023.017c.005.006.016.011.025.02s.005.005.008.005c1.358,1.026,13.792,8.705,17.678,19.837a56.96,56.96,0,0,1,1.953,6.262v0c.073.29.146.586.217.888v0a35.719,35.719,0,0,1,1.034,7.838q0,.794-.02,1.606c-.048,2.226-.181,4.532-.223,6.775q-.016.774-.017,1.536a36.234,36.234,0,0,0,.184,3.807c0,.02,0,.036.006.054.02.2.042.4.07.6.248,1.826.5,3.616.758,5.323.338,2.215.685,4.3,1.037,6.141.084.44.169.869.254,1.28a44.406,44.406,0,0,0,1.087,4.382,6.042,6.042,0,0,0,1.037,2.193c2.906,2.928,10.608,10.63,7.8,13.657a4.363,4.363,0,0,1-2.652,1.128c-4.543.648-10.917,1.248-16.27,2.392a41.033,41.033,0,0,0-4.1,1.074c-2.643.857-4.689,1.951-5.586,3.4" transform="translate(-86.906 -203.863)" fill="#b64c41"/><path d="M2417.853,869.83a20.154,20.154,0,0,0-1.4-2.746c-.572-1.029-4.919-5.491-6.635-5.949s-10.119,1.889-10.119,1.889-33.054.436-38.325-2.8c-6.864-4.219-23.538-21.687-35.139-30.6-5.53-4.249-9.909-6.555-11.529-4.559,0,0-4.417,4.239,1.144,14.714q.461.88,1.026,1.818c7.1,11.805,34.364,34.55,45.32,35.3s38.74-8.558,38.74-8.558,2.893-.79,4.38.354,7.23.932,8.048,1.715C2414.893,871.868,2418.225,870.974,2417.853,869.83Z" transform="translate(-90.942 -233.046)" fill="#ffb07b"/><path d="M2348.074,945.281a13.147,13.147,0,0,1,2.824-8.849,23.11,23.11,0,0,1,1.8-2.167v0a33.292,33.292,0,0,1,4.12-3.7,57.933,57.933,0,0,1,12.07-6.93,6.042,6.042,0,0,1-1.037-2.193,44.406,44.406,0,0,1-1.087-4.382c-.431-.335-.967-.747-1.592-1.229h-.006c-2.669-2.063-6.983-5.363-11.977-9.111-2.319-1.739-4.785-3.576-7.3-5.425-5.74-4.219-11.74-8.52-16.855-11.94-1.727-1.156-3.351-2.209-4.83-3.128h-.006c-1.3-.8-2.486-1.5-3.531-2.072-.634-.346-1.215-.643-1.736-.888h0a11.461,11.461,0,0,0-1.688-.656,1.921,1.921,0,0,0-2.359,1.282c.287.845.6,1.747.924,2.692.346,1,.716,2.04,1.1,3.111,3.336,9.359,7.781,20.925,9.257,23.393,1.938,3.245-.742,19.757-1.042,27.386,5.815,2.523,11.951,4.88,18.313,6.964" transform="translate(-92.167 -271.945)" fill="#a53934"/><path d="M2388.767,883.841c-10.746-4.568-37.413-30.423-37.8-30.794.307.107,8.907-3.732,29.745,15.234,2.412,2.2,5.812,6.639,6.595,8.565A27.215,27.215,0,0,1,2388.767,883.841Z" transform="translate(-116.295 -252.071)" fill="#a53934"/><path d="M2314.765,824.014a24.55,24.55,0,0,1,10.41,4.768c5.148,4,30.863,29.124,35.166,30.178s13.565.558,13.453,3.266-2.171,15.978-4.917,18.381-17.275,3.547-23.567-.458-37.524-41.643-35.58-49.765S2314.765,824.014,2314.765,824.014Z" transform="translate(-88.671 -232.724)" fill="#b64c41"/><path d="M2338.4,797.89c-2.746-.683-11.5,0-11.5,0s4.2-1.805,4.548-3.292a8.175,8.175,0,0,0,.1-1.517c.443,1.805,1.788,2.66,5.392,2.831S2341.143,798.573,2338.4,797.89Z" transform="translate(-100.206 -212.155)" fill="#a53934"/><g transform="translate(2309.065 612.397)"><path d="M2608.81,979.8h-32.387a1.08,1.08,0,1,0,0,2.16h32.387a1.08,1.08,0,0,0,0-2.16Z" transform="translate(-2575.342 -949.362)" fill="#a53934"/><path d="M2685.433,888.063h0a1.083,1.083,0,0,0-1.384.646l-11.071,30.436a1.08,1.08,0,0,0,2.03.739l11.071-30.437A1.083,1.083,0,0,0,2685.433,888.063Z" transform="translate(-2640.563 -887.999)" fill="#a53934"/></g><g transform="translate(2286.237 514.355)"><path d="M2598.77,592.29h-87.885a4.407,4.407,0,0,0-4.394,4.394v44.581a4.407,4.407,0,0,0,4.394,4.394h7.431l-3.587,15.152,22.522-15.152h61.52a4.407,4.407,0,0,0,4.395-4.394V596.684A4.407,4.407,0,0,0,2598.77,592.29Z" transform="translate(-2506.49 -592.29)" fill="#f1a34f"/><g transform="translate(7.688 5.767)"><path d="M2531.6,656.052h77.636a1.923,1.923,0,0,0,0-3.845H2531.6a1.923,1.923,0,0,0,0,3.845Z" transform="translate(-2529.679 -638.108)" fill="#ffbb78"/><path d="M2609.238,678.164H2531.6a1.923,1.923,0,0,0,0,3.845h77.636a1.923,1.923,0,0,0,0-3.845Z" transform="translate(-2529.679 -655.459)" fill="#ffbb78"/><path d="M2609.238,704.12H2531.6a1.928,1.928,0,0,0-1.923,1.923h0a1.929,1.929,0,0,0,1.923,1.923h77.636a1.928,1.928,0,0,0,1.922-1.923h0A1.928,1.928,0,0,0,2609.238,704.12Z" transform="translate(-2529.679 -672.809)" fill="#ffbb78"/><path d="M2538.042,614.26H2571a2.289,2.289,0,1,0,0-4.577h-32.959a2.289,2.289,0,0,0,0,4.577Z" transform="translate(-2533.74 -609.683)" fill="#ffbb78"/><path d="M2.288,0H21.162A2.289,2.289,0,0,1,23.45,2.289v0a2.289,2.289,0,0,1-2.289,2.289H2.288A2.288,2.288,0,0,1,0,2.289v0A2.288,2.288,0,0,1,2.288,0Z" transform="translate(43.945)" fill="#ffbb78"/></g></g></g></svg>